<svg width="32" height="32" viewBox="0 0 32 32" fill="none" xmlns="http://www.w3.org/2000/svg">
    <path
        d="M11.3334 28H20.6667C22.5076 28 24 26.5076 24 24.6667V9.33333H8.00002V24.6667C8.00002 26.5076 9.4924 28 11.3334 28ZM7.00002 8C6.81593 8 6.66669 7.85076 6.66669 7.66667V6.66667C6.66669 5.93029 7.26364 5.33333 8.00002 5.33333L11.6902 5.33324C12.1513 4.53622 13.013 4 14 4H18C18.987 4 19.8488 4.53622 20.3099 5.33324L24 5.33333C24.7364 5.33333 25.3334 5.93029 25.3334 6.66667V7.66667C25.3334 7.85076 25.1841 8 25 8H7.00002Z"
        fill="#FF3B30" />
</svg>
