<svg width="24" height="24" viewBox="0 0 24 24" fill="none" xmlns="http://www.w3.org/2000/svg">
    <path
        d="M17.0734 2.00215C16.861 1.98655 16.6442 2.05585 16.475 2.21465L16.4719 2.21621C16.1575 2.51061 16.1435 2.99362 16.4203 3.32402C18.3995 5.68482 19.6 8.719 19.6 12.0334C19.6 15.2006 18.5029 18.1097 16.6797 20.4225C16.4125 20.7617 16.4401 21.2454 16.7641 21.5318C17.1017 21.8294 17.6278 21.7987 17.9078 21.4459C19.9622 18.8555 21.2 15.5894 21.2 12.0334C21.2 8.327 19.8566 4.9351 17.6422 2.2959C17.493 2.1179 17.2858 2.01775 17.0734 2.00215ZM14.1594 4.73965C13.9446 4.72315 13.7239 4.79215 13.5531 4.95215C13.2563 5.23055 13.2049 5.69628 13.4609 6.01308C14.7953 7.66108 15.6 9.7526 15.6 12.0334C15.6 14.2086 14.867 16.2105 13.6422 17.8209C13.3942 18.1465 13.4561 18.613 13.7625 18.8834C14.1177 19.197 14.6581 19.1274 14.9437 18.749C16.3557 16.877 17.2 14.5542 17.2 12.0334C17.2 9.387 16.2713 6.95801 14.7297 5.04121C14.5829 4.85841 14.3742 4.75615 14.1594 4.73965ZM11.2422 7.48183C11.0241 7.46413 10.7982 7.53546 10.625 7.69746L10.6203 7.70058C10.3291 7.97338 10.2851 8.41961 10.5203 8.74121C11.1979 9.66601 11.6 10.8022 11.6 12.0334C11.6 12.8734 11.4094 13.6674 11.075 14.3818L3.82656 8.18496C3.54736 7.94656 3.12146 8.02357 2.93906 8.34277C2.34466 9.38517 2 10.5877 2 11.8725C2 13.1317 2.33032 14.3124 2.90312 15.3412C3.15272 15.7892 3.76779 15.8705 4.14219 15.5193L4.14375 15.5162C4.40615 15.2698 4.4752 14.8767 4.3 14.5615C3.856 13.7639 3.6 12.8493 3.6 11.8725C3.6 11.3325 3.68332 10.8129 3.82812 10.3193L10.9375 16.4021C11.1983 16.6253 11.5882 16.5688 11.7922 16.2928C12.6746 15.1 13.2 13.6286 13.2 12.0334C13.2 10.4494 12.6829 8.98626 11.8109 7.79746C11.6709 7.60626 11.4603 7.49953 11.2422 7.48183Z"
        fill="#7C8894" />
</svg>
