<svg width="24" height="24" viewBox="0 0 24 24" fill="none" xmlns="http://www.w3.org/2000/svg">
    <path
        d="M11.5396 5.27819C11.8205 5.09924 12.1797 5.09924 12.4606 5.27819L20.111 10.1515C20.5103 10.4059 21.0401 10.2884 21.2944 9.8891C21.5488 9.48983 21.4313 8.95999 21.032 8.70566L13.3816 3.83233C12.5388 3.29547 11.4614 3.29547 10.6186 3.83233L2.96815 8.70566C2.56889 8.95999 2.4514 9.48983 2.70573 9.8891C2.96006 10.2884 3.48991 10.4059 3.88917 10.1515L11.5396 5.27819Z"
        fill="#7C8894" />
    <path
        d="M6.85723 12C6.85723 11.5266 6.47348 11.1429 6.00009 11.1429C5.5267 11.1429 5.14295 11.5266 5.14295 12V18.8571H3.42866C2.95527 18.8571 2.57152 19.2409 2.57152 19.7143C2.57152 20.1877 2.95527 20.5714 3.42866 20.5714H20.5715C21.0449 20.5714 21.4287 20.1877 21.4287 19.7143C21.4287 19.2409 21.0449 18.8571 20.5715 18.8571H18.8572V12C18.8572 11.5266 18.4735 11.1429 18.0001 11.1429C17.5267 11.1429 17.1429 11.5266 17.1429 12V18.8571H15.4287L15.4287 12C15.4287 11.5266 15.0449 11.1429 14.5715 11.1429C14.0981 11.1429 13.7144 11.5266 13.7144 12L13.7144 18.8571H10.2858V12C10.2858 11.5266 9.90205 11.1429 9.42866 11.1429C8.95528 11.1429 8.57152 11.5266 8.57152 12L8.57152 18.8571H6.85723V12Z"
        fill="#7C8894" />
    <path
        d="M12.0001 7.28573C11.29 7.28573 10.7144 7.86137 10.7144 8.57145C10.7144 9.28153 11.29 9.85716 12.0001 9.85716C12.7102 9.85716 13.2858 9.28153 13.2858 8.57145C13.2858 7.86137 12.7102 7.28573 12.0001 7.28573Z"
        fill="#7C8894" />
</svg>
