<svg width="32" height="32" viewBox="0 0 32 32" fill="none" xmlns="http://www.w3.org/2000/svg">
    <path
        d="M16 4.57143C16.6312 4.57143 17.1428 5.0831 17.1428 5.71428V14.8571H26.2857C26.9169 14.8571 27.4286 15.3688 27.4286 16C27.4286 16.6312 26.9169 17.1429 26.2857 17.1429H17.1428V26.2857C17.1428 26.9169 16.6312 27.4286 16 27.4286C15.3688 27.4286 14.8571 26.9169 14.8571 26.2857V17.1429H5.71427C5.08309 17.1429 4.57141 16.6312 4.57141 16C4.57141 15.3688 5.08309 14.8571 5.71427 14.8571H14.8571V5.71428C14.8571 5.0831 15.3688 4.57143 16 4.57143Z"
        fill="#5D80FE" />
</svg>
