<svg width="40" height="40" viewBox="0 0 40 40" fill="none" xmlns="http://www.w3.org/2000/svg">
    <path
        d="M0 20C0 31.0457 8.95431 40 20 40C31.0457 40 40 31.0457 40 20C40 8.95431 31.0457 0 20 0C8.95431 0 0 8.95431 0 20Z"
        fill="#0052B4" />
    <path d="M20 8L19.4693 9.63342L20.286 9.89879L20 8Z" fill="#FFCC00" />
    <path d="M20 8L20.5307 9.63342L19.714 9.89879L20 8Z" fill="#FFCC00" />
    <path d="M21.6333 9.18677H19.9158V10.0455L21.6333 9.18677Z" fill="#FFCC00" />
    <path d="M21.6333 9.18677L20.2438 10.1963L19.7391 9.50154L21.6333 9.18677Z" fill="#FFCC00" />
    <path d="M21.0095 11.107L20.4788 9.47357L19.6621 9.73894L21.0095 11.107Z" fill="#FFCC00" />
    <path d="M21.0095 11.107L19.6201 10.0975L20.1248 9.40275L21.0095 11.107Z" fill="#FFCC00" />
    <path d="M18.3666 9.18677H20.0841V10.0455L18.3666 9.18677Z" fill="#FFCC00" />
    <path d="M18.3666 9.18677L19.756 10.1963L20.2608 9.50154L18.3666 9.18677Z" fill="#FFCC00" />
    <path d="M18.9904 11.107L19.5211 9.47357L20.3378 9.73894L18.9904 11.107Z" fill="#FFCC00" />
    <path d="M18.9904 11.107L20.3798 10.0975L19.8751 9.40275L18.9904 11.107Z" fill="#FFCC00" />
    <path d="M20 28.6097L19.4693 30.2432L20.286 30.5085L20 28.6097Z" fill="#FFCC00" />
    <path d="M20 28.6097L20.5307 30.2432L19.714 30.5085L20 28.6097Z" fill="#FFCC00" />
    <path d="M21.6333 29.7965H19.9158V30.6552L21.6333 29.7965Z" fill="#FFCC00" />
    <path d="M21.6333 29.7965L20.2438 30.806L19.7391 30.1113L21.6333 29.7965Z" fill="#FFCC00" />
    <path d="M21.0095 31.7167L20.4788 30.0833L19.6621 30.3487L21.0095 31.7167Z" fill="#FFCC00" />
    <path d="M21.0095 31.7167L19.6201 30.7072L20.1248 30.0125L21.0095 31.7167Z" fill="#FFCC00" />
    <path d="M18.3666 29.7965H20.0841V30.6552L18.3666 29.7965Z" fill="#FFCC00" />
    <path d="M18.3666 29.7965L19.756 30.806L20.2608 30.1113L18.3666 29.7965Z" fill="#FFCC00" />
    <path d="M18.9904 31.7167L19.5211 30.0833L20.3378 30.3487L18.9904 31.7167Z" fill="#FFCC00" />
    <path d="M18.9904 31.7167L20.3798 30.7072L19.8751 30.0125L18.9904 31.7167Z" fill="#FFCC00" />
    <path d="M9.69507 18.3049L9.16434 19.9383L9.98105 20.2037L9.69507 18.3049Z" fill="#FFCC00" />
    <path d="M9.69507 18.3049L10.2258 19.9383L9.40909 20.2037L9.69507 18.3049Z" fill="#FFCC00" />
    <path d="M11.3285 19.4916H9.61101V20.3504L11.3285 19.4916Z" fill="#FFCC00" />
    <path d="M11.3285 19.4916L9.93902 20.5011L9.43427 19.8064L11.3285 19.4916Z" fill="#FFCC00" />
    <path d="M10.7046 21.4119L10.1739 19.7784L9.35715 20.0438L10.7046 21.4119Z" fill="#FFCC00" />
    <path d="M10.7046 21.4119L9.31512 20.4024L9.81987 19.7076L10.7046 21.4119Z" fill="#FFCC00" />
    <path d="M8.06165 19.4916H9.77912V20.3504L8.06165 19.4916Z" fill="#FFCC00" />
    <path d="M8.06165 19.4916L9.45112 20.5011L9.95587 19.8064L8.06165 19.4916Z" fill="#FFCC00" />
    <path d="M8.68555 21.4119L9.21628 19.7784L10.033 20.0438L8.68555 21.4119Z" fill="#FFCC00" />
    <path d="M8.68555 21.4119L10.075 20.4024L9.57026 19.7076L8.68555 21.4119Z" fill="#FFCC00" />
    <path d="M13.838 12.4875L15.2275 11.478L14.7227 10.7832L13.838 12.4875Z" fill="#FFCC00" />
    <path d="M13.838 12.4875L14.3687 10.8541L15.1855 11.1194L13.838 12.4875Z" fill="#FFCC00" />
    <path d="M13.2141 10.5673L14.6036 11.5768L15.1083 10.8821L13.2141 10.5673Z" fill="#FFCC00" />
    <path d="M13.2141 10.5673H14.9316V11.4261L13.2141 10.5673Z" fill="#FFCC00" />
    <path d="M14.8475 9.38055L14.3168 11.014L15.1335 11.2793L14.8475 9.38055Z" fill="#FFCC00" />
    <path d="M14.8475 9.38055L15.3783 11.014L14.5616 11.2793L14.8475 9.38055Z" fill="#FFCC00" />
    <path d="M15.8569 12.4875L14.4675 11.478L14.9722 10.7832L15.8569 12.4875Z" fill="#FFCC00" />
    <path d="M15.8569 12.4875L15.3262 10.8541L14.5095 11.1194L15.8569 12.4875Z" fill="#FFCC00" />
    <path d="M16.481 10.5673L15.0915 11.5768L14.5867 10.882L16.481 10.5673Z" fill="#FFCC00" />
    <path d="M16.481 10.5673H14.7635V11.426L16.481 10.5673Z" fill="#FFCC00" />
    <path d="M12.0851 16.2594L11.5544 14.626L10.7376 14.8913L12.0851 16.2594Z" fill="#FFCC00" />
    <path d="M12.0851 16.2594L10.6956 15.2499L11.2004 14.5552L12.0851 16.2594Z" fill="#FFCC00" />
    <path d="M10.0662 16.2593L11.4556 15.2498L10.9509 14.5551L10.0662 16.2593Z" fill="#FFCC00" />
    <path d="M10.0662 16.2593L10.5969 14.6259L11.4136 14.8913L10.0662 16.2593Z" fill="#FFCC00" />
    <path d="M9.44214 14.3392L10.8316 15.3487L11.3364 14.6539L9.44214 14.3392Z" fill="#FFCC00" />
    <path d="M9.44214 14.3392H11.1596V15.1979L9.44214 14.3392Z" fill="#FFCC00" />
    <path d="M12.709 14.3392L11.3195 15.3487L10.8148 14.654L12.709 14.3392Z" fill="#FFCC00" />
    <path d="M12.709 14.3392H10.9915V15.198L12.709 14.3392Z" fill="#FFCC00" />
    <path d="M11.0756 13.1525L11.6063 14.7859L10.7896 15.0513L11.0756 13.1525Z" fill="#FFCC00" />
    <path d="M11.0756 13.1525L10.5448 14.7859L11.3615 15.0513L11.0756 13.1525Z" fill="#FFCC00" />
    <path d="M12.7091 24.644H10.9916V25.5028L12.7091 24.644Z" fill="#FFCC00" />
    <path d="M12.7091 24.644L11.3196 25.6536L10.8149 24.9588L12.7091 24.644Z" fill="#FFCC00" />
    <path d="M12.0852 26.5643L11.5545 24.9308L10.7378 25.1962L12.0852 26.5643Z" fill="#FFCC00" />
    <path d="M12.0852 26.5643L10.6957 25.5548L11.2005 24.86L12.0852 26.5643Z" fill="#FFCC00" />
    <path d="M10.0662 26.5642L11.4556 25.5547L10.9509 24.86L10.0662 26.5642Z" fill="#FFCC00" />
    <path d="M10.0662 26.5642L10.5969 24.9308L11.4136 25.1962L10.0662 26.5642Z" fill="#FFCC00" />
    <path d="M11.0756 23.4573L11.6063 25.0907L10.7896 25.3561L11.0756 23.4573Z" fill="#FFCC00" />
    <path d="M11.0756 23.4573L10.5448 25.0907L11.3615 25.3561L11.0756 23.4573Z" fill="#FFCC00" />
    <path d="M9.44226 24.644H11.1597V25.5028L9.44226 24.644Z" fill="#FFCC00" />
    <path d="M9.44226 24.644L10.8317 25.6536L11.3365 24.9588L9.44226 24.644Z" fill="#FFCC00" />
    <path d="M16.481 28.4159H14.7635V29.2746L16.481 28.4159Z" fill="#FFCC00" />
    <path d="M16.481 28.4159L15.0915 29.4254L14.5867 28.7307L16.481 28.4159Z" fill="#FFCC00" />
    <path d="M15.8571 30.3361L15.3263 28.7027L14.5096 28.9681L15.8571 30.3361Z" fill="#FFCC00" />
    <path d="M15.8571 30.3361L14.4676 29.3266L14.9723 28.6319L15.8571 30.3361Z" fill="#FFCC00" />
    <path d="M13.838 30.3361L15.2275 29.3266L14.7227 28.6318L13.838 30.3361Z" fill="#FFCC00" />
    <path d="M13.838 30.3361L14.3687 28.7026L15.1855 28.968L13.838 30.3361Z" fill="#FFCC00" />
    <path d="M14.8475 27.2291L15.3783 28.8625L14.5616 29.1279L14.8475 27.2291Z" fill="#FFCC00" />
    <path d="M14.8475 27.2291L14.3168 28.8625L15.1335 29.1279L14.8475 27.2291Z" fill="#FFCC00" />
    <path d="M13.2141 28.4159H14.9316V29.2746L13.2141 28.4159Z" fill="#FFCC00" />
    <path d="M13.2141 28.4159L14.6036 29.4254L15.1083 28.7307L13.2141 28.4159Z" fill="#FFCC00" />
    <path d="M30.3047 18.3049L30.8354 19.9383L30.0187 20.2037L30.3047 18.3049Z" fill="#FFCC00" />
    <path d="M30.3047 18.3049L29.774 19.9383L30.5907 20.2037L30.3047 18.3049Z" fill="#FFCC00" />
    <path d="M28.6713 19.4916H30.3887V20.3504L28.6713 19.4916Z" fill="#FFCC00" />
    <path d="M28.6713 19.4916L30.0607 20.5011L30.5655 19.8064L28.6713 19.4916Z" fill="#FFCC00" />
    <path d="M29.2952 21.4119L29.8259 19.7784L30.6426 20.0438L29.2952 21.4119Z" fill="#FFCC00" />
    <path d="M29.2952 21.4119L30.6846 20.4024L30.1799 19.7076L29.2952 21.4119Z" fill="#FFCC00" />
    <path d="M31.9381 19.4916H30.2206V20.3504L31.9381 19.4916Z" fill="#FFCC00" />
    <path d="M31.9381 19.4916L30.5486 20.5011L30.0439 19.8064L31.9381 19.4916Z" fill="#FFCC00" />
    <path d="M31.3143 21.4119L30.7836 19.7784L29.9669 20.0438L31.3143 21.4119Z" fill="#FFCC00" />
    <path d="M31.3143 21.4119L29.9249 20.4024L30.4296 19.7076L31.3143 21.4119Z" fill="#FFCC00" />
    <path d="M26.1617 12.4875L24.7723 11.478L25.277 10.7832L26.1617 12.4875Z" fill="#FFCC00" />
    <path d="M26.1617 12.4875L25.631 10.8541L24.8143 11.1194L26.1617 12.4875Z" fill="#FFCC00" />
    <path d="M26.7856 10.5673L25.3962 11.5768L24.8914 10.8821L26.7856 10.5673Z" fill="#FFCC00" />
    <path d="M26.7856 10.5673H25.0682V11.4261L26.7856 10.5673Z" fill="#FFCC00" />
    <path d="M25.1523 9.38055L25.6831 11.014L24.8664 11.2793L25.1523 9.38055Z" fill="#FFCC00" />
    <path d="M25.1523 9.38055L24.6216 11.014L25.4383 11.2793L25.1523 9.38055Z" fill="#FFCC00" />
    <path d="M24.1428 12.4875L25.5323 11.478L25.0275 10.7832L24.1428 12.4875Z" fill="#FFCC00" />
    <path d="M24.1428 12.4875L24.6736 10.8541L25.4903 11.1194L24.1428 12.4875Z" fill="#FFCC00" />
    <path d="M23.5188 10.5673L24.9083 11.5768L25.413 10.882L23.5188 10.5673Z" fill="#FFCC00" />
    <path d="M23.5188 10.5673H25.2363V11.426L23.5188 10.5673Z" fill="#FFCC00" />
    <path d="M27.9146 16.2594L28.4453 14.626L29.262 14.8913L27.9146 16.2594Z" fill="#FFCC00" />
    <path d="M27.9146 16.2594L29.304 15.2499L28.7993 14.5552L27.9146 16.2594Z" fill="#FFCC00" />
    <path d="M29.9336 16.2593L28.5441 15.2498L29.0489 14.5551L29.9336 16.2593Z" fill="#FFCC00" />
    <path d="M29.9336 16.2593L29.4029 14.6259L28.5862 14.8913L29.9336 16.2593Z" fill="#FFCC00" />
    <path d="M30.5575 14.3392L29.168 15.3487L28.6633 14.6539L30.5575 14.3392Z" fill="#FFCC00" />
    <path d="M30.5575 14.3392H28.84V15.1979L30.5575 14.3392Z" fill="#FFCC00" />
    <path d="M27.2906 14.3392L28.6801 15.3487L29.1849 14.654L27.2906 14.3392Z" fill="#FFCC00" />
    <path d="M27.2906 14.3392H29.0081V15.198L27.2906 14.3392Z" fill="#FFCC00" />
    <path d="M28.9241 13.1525L28.3933 14.7859L29.2101 15.0513L28.9241 13.1525Z" fill="#FFCC00" />
    <path d="M28.9241 13.1525L29.4548 14.7859L28.6381 15.0513L28.9241 13.1525Z" fill="#FFCC00" />
    <path d="M27.2906 24.644H29.0081V25.5028L27.2906 24.644Z" fill="#FFCC00" />
    <path d="M27.2906 24.644L28.6801 25.6536L29.1849 24.9588L27.2906 24.644Z" fill="#FFCC00" />
    <path d="M27.9146 26.5643L28.4453 24.9308L29.262 25.1962L27.9146 26.5643Z" fill="#FFCC00" />
    <path d="M27.9146 26.5643L29.304 25.5548L28.7993 24.86L27.9146 26.5643Z" fill="#FFCC00" />
    <path d="M29.9336 26.5642L28.5441 25.5547L29.0489 24.86L29.9336 26.5642Z" fill="#FFCC00" />
    <path d="M29.9336 26.5642L29.4029 24.9308L28.5862 25.1962L29.9336 26.5642Z" fill="#FFCC00" />
    <path d="M28.9242 23.4573L28.3935 25.0907L29.2102 25.3561L28.9242 23.4573Z" fill="#FFCC00" />
    <path d="M28.9242 23.4573L29.4549 25.0907L28.6382 25.3561L28.9242 23.4573Z" fill="#FFCC00" />
    <path d="M30.5575 24.644H28.84V25.5028L30.5575 24.644Z" fill="#FFCC00" />
    <path d="M30.5575 24.644L29.168 25.6536L28.6633 24.9588L30.5575 24.644Z" fill="#FFCC00" />
    <path d="M23.5188 28.4159H25.2363V29.2746L23.5188 28.4159Z" fill="#FFCC00" />
    <path d="M23.5188 28.4159L24.9083 29.4254L25.413 28.7307L23.5188 28.4159Z" fill="#FFCC00" />
    <path d="M24.1427 30.3361L24.6734 28.7027L25.4901 28.9681L24.1427 30.3361Z" fill="#FFCC00" />
    <path d="M24.1427 30.3361L25.5322 29.3266L25.0274 28.6319L24.1427 30.3361Z" fill="#FFCC00" />
    <path d="M26.1617 30.3361L24.7723 29.3266L25.277 28.6318L26.1617 30.3361Z" fill="#FFCC00" />
    <path d="M26.1617 30.3361L25.631 28.7026L24.8143 28.968L26.1617 30.3361Z" fill="#FFCC00" />
    <path d="M25.1523 27.2291L24.6216 28.8625L25.4383 29.1279L25.1523 27.2291Z" fill="#FFCC00" />
    <path d="M25.1523 27.2291L25.6831 28.8625L24.8664 29.1279L25.1523 27.2291Z" fill="#FFCC00" />
    <path d="M26.7856 28.4159H25.0682V29.2746L26.7856 28.4159Z" fill="#FFCC00" />
    <path d="M26.7856 28.4159L25.3962 29.4254L24.8914 28.7307L26.7856 28.4159Z" fill="#FFCC00" />
</svg>
