<svg width="40" height="40" viewBox="0 0 40 40" fill="none" xmlns="http://www.w3.org/2000/svg">
    <g clip-path="url(#clip0_322_72)">
        <path
            d="M20.0002 40.0001C31.0459 40.0001 40.0002 31.0458 40.0002 20.0001C40.0002 8.95443 31.0459 0.00012207 20.0002 0.00012207C8.95449 0.00012207 0.000183105 8.95443 0.000183105 20.0001C0.000183105 31.0458 8.95449 40.0001 20.0002 40.0001Z"
            fill="#F0F0F0" />
        <path
            d="M20 40C31.0456 40 40 31.0456 40 20C40 17.5536 39.56 15.2101 38.756 13.0435H1.24398C0.440078 15.2101 0 17.5536 0 20C0 31.0456 8.95437 40 20 40Z"
            fill="#0052B4" />
        <path
            d="M20 40C28.5993 40 35.9302 34.5725 38.7561 26.9565H1.24402C4.06988 34.5725 11.4007 40 20 40Z"
            fill="#D80027" />
        <path
            d="M5.17181 11.3044V21.2815C5.17181 26.9568 12.586 28.6958 12.586 28.6958C12.586 28.6958 20 26.9568 20 21.2815V11.3044H5.17181Z"
            fill="#F0F0F0" />
        <path
            d="M6.933 12.3999C8.72877 11.6086 10.6696 11.2 12.632 11.2C14.5944 11.2 16.5353 11.6086 18.331 12.3999C18.9263 20.818 17.0266 25.5891 12.632 26.7133C8.23739 25.5891 6.33772 20.818 6.933 12.3999Z"
            fill="#0052B4" />
        <path
            d="M12.632 13.9127L12.8045 14.3039L13.2295 14.2576L12.977 14.6026L13.2295 14.9475L12.8045 14.9013L12.632 15.2924L12.4596 14.9013L12.0346 14.9475L12.2871 14.6026L12.0346 14.2576L12.4596 14.3039"
            fill="#FFFF00" />
        <path
            d="M11.0224 11.7665L11.1948 12.1576L11.6198 12.1114L11.3673 12.4563L11.6198 12.8013L11.1948 12.755L11.0224 13.1462L10.8499 12.755L10.4249 12.8013L10.6774 12.4563L10.4249 12.1114L10.8499 12.1576"
            fill="#FFFF00" />
        <path
            d="M14.2417 11.7665L14.4141 12.1576L14.8391 12.1114L14.5866 12.4563L14.8391 12.8013L14.4141 12.755L14.2417 13.1462L14.0692 12.755L13.6442 12.8013L13.8967 12.4563L13.6442 12.1114L14.0692 12.1576"
            fill="#FFFF00" />
        <path
            d="M12.6321 16.1356L14.0118 18.895L14.9316 17.6686L17.2311 20.7346C17.2311 20.877 17.2112 21.0188 17.1721 21.1557C16.8568 22.2592 16.2793 23.27 15.4887 24.1018C14.6981 24.9337 13.718 25.5619 12.6321 25.9329C11.5461 25.5619 10.566 24.9337 9.77541 24.1018C8.98484 23.27 8.40727 22.2592 8.092 21.1557C8.05287 21.0188 8.03302 20.877 8.03302 20.7346L10.3325 17.6686L11.2523 18.895L12.6321 16.1356Z"
            fill="white" />
        <path
            d="M8.092 21.1558C8.15602 21.3798 8.27026 21.5863 8.42605 21.7596C8.58184 21.9329 8.77508 22.0683 8.99108 22.1557C9.20708 22.2431 9.44016 22.2801 9.6726 22.2639C9.90505 22.2477 10.1307 22.1787 10.3325 22.0622C10.5656 21.9277 10.8299 21.8569 11.099 21.8569C11.3681 21.8569 11.6325 21.9277 11.8655 22.0622C12.0986 22.1968 12.363 22.2676 12.6321 22.2676C12.9012 22.2676 13.1655 22.1968 13.3986 22.0622C13.6316 21.9277 13.896 21.8569 14.1651 21.8569C14.4342 21.8569 14.6985 21.9277 14.9316 22.0622C15.1334 22.1787 15.3591 22.2477 15.5915 22.2639C15.8239 22.2801 16.057 22.2431 16.273 22.1557C16.489 22.0683 16.6823 21.9329 16.8381 21.7596C16.9938 21.5863 17.1081 21.3798 17.1721 21.1558L17.2311 21.1772V22.2994C16.962 22.2994 16.6976 22.3702 16.4646 22.5048C16.2315 22.6393 15.9672 22.7102 15.6981 22.7102C15.429 22.7102 15.1646 22.6393 14.9316 22.5048C14.6985 22.3702 14.4342 22.2994 14.1651 22.2994C13.896 22.2994 13.6316 22.3702 13.3986 22.5048C13.1655 22.6393 12.9012 22.7102 12.6321 22.7102C12.363 22.7102 12.0986 22.6393 11.8655 22.5048C11.6325 22.3702 11.3681 22.2994 11.099 22.2994C10.8299 22.2994 10.5656 22.3702 10.3325 22.5048C10.0995 22.6393 9.83513 22.7102 9.56603 22.7102C9.29693 22.7102 9.03257 22.6393 8.79953 22.5048C8.56648 22.3702 8.30212 22.2994 8.03302 22.2994V21.1772"
            fill="#0052B4" />
        <path
            d="M8.092 22.0408C8.15602 22.2648 8.27026 22.4714 8.42605 22.6446C8.58184 22.8179 8.77508 22.9534 8.99108 23.0408C9.20708 23.1281 9.44016 23.1652 9.6726 23.149C9.90505 23.1328 10.1307 23.0638 10.3325 22.9473C10.5656 22.8127 10.8299 22.7419 11.099 22.7419C11.3681 22.7419 11.6325 22.8127 11.8655 22.9473C12.0986 23.0818 12.363 23.1527 12.6321 23.1527C12.9012 23.1527 13.1655 23.0818 13.3986 22.9473C13.6316 22.8127 13.896 22.7419 14.1651 22.7419C14.4342 22.7419 14.6985 22.8127 14.9316 22.9473C15.1334 23.0638 15.3591 23.1328 15.5915 23.149C15.8239 23.1652 16.057 23.1281 16.273 23.0408C16.489 22.9534 16.6823 22.8179 16.8381 22.6446C16.9938 22.4714 17.1081 22.2648 17.1721 22.0408L17.2311 22.0622V23.1844C16.962 23.1844 16.6976 23.2553 16.4646 23.3898C16.2315 23.5244 15.9672 23.5952 15.6981 23.5952C15.429 23.5952 15.1646 23.5244 14.9316 23.3898C14.6985 23.2553 14.4342 23.1844 14.1651 23.1844C13.896 23.1844 13.6316 23.2553 13.3986 23.3898C13.1655 23.5244 12.9012 23.5952 12.6321 23.5952C12.363 23.5952 12.0986 23.5244 11.8655 23.3898C11.6325 23.2553 11.3681 23.1844 11.099 23.1844C10.8299 23.1844 10.5656 23.2553 10.3325 23.3898C10.0995 23.5244 9.83513 23.5952 9.56603 23.5952C9.29693 23.5952 9.03257 23.5244 8.79953 23.3898C8.56648 23.2553 8.30212 23.1844 8.03302 23.1844V22.0622"
            fill="#0052B4" />
        <path
            d="M6.5 12.5996C6.64321 12.5306 6.78757 12.4641 6.93302 12.4L7.38843 19.6739C7.48352 21.1928 8.03495 22.6476 8.97054 23.848C9.90614 25.0483 11.1823 25.9382 12.632 26.4012C14.0818 25.9382 15.3579 25.0483 16.2935 23.848C17.2291 22.6476 17.7806 21.1928 17.8757 19.6739L18.3311 12.4C18.4765 12.4641 18.6209 12.5306 18.7641 12.5996L18.3194 19.7017C18.2172 21.3341 17.6173 22.8959 16.6005 24.177C15.5836 25.458 14.1986 26.3967 12.632 26.8667C11.0655 26.3967 9.68048 25.458 8.66362 24.177C7.64676 22.8959 7.04684 21.3341 6.94465 19.7017L6.5 12.5996Z"
            fill="#D80027" />
    </g>
    <defs>
        <clipPath id="clip0_322_72">
            <rect width="40" height="40" fill="white" />
        </clipPath>
    </defs>
</svg>
