<svg width="40" height="40" viewBox="0 0 40 40" fill="none" xmlns="http://www.w3.org/2000/svg">
    <g clip-path="url(#clip0_1_876)">
        <path
            d="M40 20C40 31.0456 31.0456 40 20 40C8.95437 40 0 31.0456 0 20C0.869531 20 20 17.3913 20 17.3913L40 20Z"
            fill="#D80027" />
        <path
            d="M0.000366211 20C0.000366211 8.95441 8.95474 3.05176e-05 20.0004 3.05176e-05C31.046 3.05176e-05 40.0004 8.95441 40.0004 20"
            fill="#0052B4" />
        <path
            d="M14.7826 13.9131C14.7826 12.4724 13.6146 11.3044 12.1739 11.3044C11.5056 11.3044 10.8964 11.556 10.4348 11.9692V10.4348H11.3043V8.69567H10.4348V7.82614H8.69565V8.69567H7.82612V10.4348H8.69565V11.9692C8.23401 11.556 7.62487 11.3044 6.95651 11.3044C5.51581 11.3044 4.34784 12.4724 4.34784 13.9131C4.34784 14.6855 4.68385 15.3793 5.21737 15.857V17.3914H13.913V15.857C14.4467 15.3793 14.7826 14.6855 14.7826 13.9131Z"
            fill="#FFDA44" />
    </g>
    <defs>
        <clipPath id="clip0_1_876">
            <rect width="40" height="40" fill="white" />
        </clipPath>
    </defs>
</svg>
