<svg width="40" height="40" viewBox="0 0 40 40" fill="none" xmlns="http://www.w3.org/2000/svg">
    <g clip-path="url(#clip0_1_947)">
        <path
            d="M20.0002 40.0001C31.0459 40.0001 40.0002 31.0458 40.0002 20.0001C40.0002 8.9544 31.0459 9.15527e-05 20.0002 9.15527e-05C8.95449 9.15527e-05 0.000183105 8.9544 0.000183105 20.0001C0.000183105 31.0458 8.95449 40.0001 20.0002 40.0001Z"
            fill="#F0F0F0" />
        <path
            d="M20.0001 3.05176e-05C31.0457 3.05176e-05 40.0001 8.9544 40.0001 20C40.0001 31.0457 31.0457 40 20.0001 40"
            fill="#D80027" />
        <path
            d="M13.9131 7.82614V5.21747H11.3044V7.82614H8.69568V10.4348H11.3044V13.0436H13.9131V10.4348H16.5218V7.82614H13.9131Z"
            fill="#ACABB1" />
    </g>
    <defs>
        <clipPath id="clip0_1_947">
            <rect width="40" height="40" fill="white" />
        </clipPath>
    </defs>
</svg>
