<svg width="40" height="40" viewBox="0 0 40 40" fill="none" xmlns="http://www.w3.org/2000/svg">
    <g clip-path="url(#clip0_1_126)">
        <path
            d="M38.756 26.9565C39.56 24.7899 40 22.4464 40 20C40 17.5536 39.56 15.2102 38.756 13.0435L20 11.3044L1.24398 13.0435C0.440078 15.2102 0 17.5536 0 20C0 22.4464 0.440078 24.7899 1.24398 26.9565L20 28.6956L38.756 26.9565Z"
            fill="#F0F0F0" />
        <path
            d="M20.0002 40.0001C28.5995 40.0001 35.9304 34.5726 38.7562 26.9565H1.24414C4.07008 34.5726 11.4009 40.0001 20.0002 40.0001Z"
            fill="#D80027" />
        <path
            d="M20.0002 6.10352e-05C11.4009 6.10352e-05 4.07008 5.42756 1.24414 13.0436H38.7563C35.9304 5.42756 28.5995 6.10352e-05 20.0002 6.10352e-05Z"
            fill="#D80027" />
    </g>
    <defs>
        <clipPath id="clip0_1_126">
            <rect width="40" height="40" fill="white" />
        </clipPath>
    </defs>
</svg>
