<svg width="40" height="40" viewBox="0 0 40 40" fill="none" xmlns="http://www.w3.org/2000/svg">
<g clip-path="url(#clip0_1_1235)">
<path d="M26.9565 1.24394C24.7898 0.440109 22.4464 3.0528e-05 20 3.0528e-05C17.5536 -4.7597e-05 15.2102 0.440109 13.0435 1.24394L11.3044 20L13.0435 38.756C15.2101 39.56 17.5535 40 20 40C22.4464 40 24.7899 39.56 26.9565 38.756L28.6956 20L26.9565 1.24394Z" fill="#FFDA44"/>
<path d="M40.0001 20C40.0001 11.4008 34.5726 4.06977 26.9566 1.24399V38.7562C34.5726 35.9301 40 28.5994 40.0001 20Z" fill="#D80027"/>
<path d="M3.05176e-05 19.9999C3.05176e-05 28.5994 5.42753 35.9301 13.0434 38.7561L13.0435 1.24405C5.42753 4.06983 3.05176e-05 11.4006 3.05176e-05 19.9999H3.05176e-05Z" fill="#0052B4"/>
</g>
<defs>
<clipPath id="clip0_1_1235">
<rect width="40" height="40" fill="white"/>
</clipPath>
</defs>
</svg>
